<svg width="35" height="35" viewBox="0 0 35 35" fill="none" xmlns="http://www.w3.org/2000/svg">
  <mask id="mask0_855_1280" style="mask-type:alpha" maskUnits="userSpaceOnUse" x="0" y="0" width="35" height="35">
    <rect width="35" height="35" fill="#D9D9D9"/>
  </mask>
  <g mask="url(#mask0_855_1280)">
    <path d="M29.0938 30.625C26.0556 30.625 23.0538 29.9627 20.0885 28.638C17.1233 27.3134 14.4253 25.4358 11.9948 23.0052C9.56424 20.5747 7.68663 17.8767 6.36198 14.9115C5.03733 11.9462 4.375 8.94445 4.375 5.90625C4.375 5.46875 4.52083 5.10417 4.8125 4.8125C5.10417 4.52083 5.46875 4.375 5.90625 4.375H11.8125C12.1528 4.375 12.4566 4.49045 12.724 4.72135C12.9913 4.95226 13.1493 5.22569 13.1979 5.54167L14.1458 10.6458C14.1944 11.0347 14.1823 11.3628 14.1094 11.6302C14.0365 11.8976 13.9028 12.1285 13.7083 12.3229L10.1719 15.8958C10.658 16.7951 11.2352 17.6641 11.9036 18.5026C12.572 19.3411 13.3073 20.1493 14.1094 20.9271C14.8628 21.6806 15.6528 22.3793 16.4792 23.0234C17.3056 23.6675 18.1806 24.2569 19.1042 24.7917L22.5312 21.3646C22.75 21.1458 23.0356 20.9818 23.388 20.8724C23.7405 20.763 24.0868 20.7326 24.4271 20.7812L29.4583 21.8021C29.7986 21.8993 30.0781 22.0755 30.2969 22.3307C30.5156 22.5859 30.625 22.8715 30.625 23.1875V29.0938C30.625 29.5313 30.4792 29.8958 30.1875 30.1875C29.8958 30.4792 29.5313 30.625 29.0938 30.625ZM8.78646 13.125L11.1927 10.7188L10.5729 7.29167H7.32813C7.44965 8.28819 7.61979 9.27257 7.83854 10.2448C8.05729 11.217 8.37326 12.1771 8.78646 13.125ZM21.8385 26.1771C22.7865 26.5903 23.7526 26.9184 24.737 27.1615C25.7214 27.4045 26.7118 27.5625 27.7083 27.6354V24.4271L24.2813 23.7344L21.8385 26.1771Z" fill="#FFFFFF"/>
  </g>
</svg>
