<svg width="36" height="36" viewBox="0 0 36 36" fill="none" xmlns="http://www.w3.org/2000/svg">
<g clip-path="url(#clip0_716_1714)">
<path d="M17.9998 -0.038269C8.0537 -0.038269 -0.0395508 8.05273 -0.0395508 18C-0.0395508 27.9472 8.0537 36.0382 17.9998 36.0382C27.9459 36.0382 36.0392 27.9472 36.0392 18C36.0392 8.05273 27.9459 -0.038269 17.9998 -0.038269ZM17.9998 34.8367C8.71632 34.8367 1.1642 27.2835 1.1642 18C1.1642 8.71648 8.71632 1.16323 17.9998 1.16323C27.2833 1.16323 34.8354 8.71648 34.8354 18C34.8354 27.2835 27.2833 34.8367 17.9998 34.8367Z" fill="#64AEEB"/>
<path d="M21.9375 7.87498H18.936C15.1133 7.83673 14.625 10.2026 14.625 12.7631V14.625H12.9375C12.8612 14.6148 12.7836 14.6223 12.7108 14.647C12.6379 14.6717 12.5716 14.7128 12.5172 14.7672C12.4628 14.8216 12.4217 14.8878 12.397 14.9607C12.3724 15.0336 12.3648 15.1112 12.375 15.1875V18.5625C12.3648 18.6388 12.3724 18.7163 12.397 18.7892C12.4217 18.8621 12.4628 18.9284 12.5172 18.9828C12.5716 19.0372 12.6379 19.0783 12.7108 19.103C12.7836 19.1276 12.8612 19.1352 12.9375 19.125H14.625V27.5625C14.6156 27.6389 14.6239 27.7164 14.649 27.7892C14.6742 27.8619 14.7157 27.928 14.7703 27.9822C14.8249 28.0365 14.8911 28.0776 14.964 28.1023C15.0369 28.1271 15.1145 28.1348 15.1909 28.125H18.6278C18.9596 28.1632 19.2285 27.8944 19.1228 27.5625L19.125 19.125H21.9375C22.0138 19.1352 22.0914 19.1276 22.1643 19.103C22.2372 19.0783 22.3034 19.0372 22.3578 18.9828C22.4122 18.9284 22.4533 18.8621 22.478 18.7892C22.5027 18.7163 22.5102 18.6388 22.5 18.5625V15.1875C22.5102 15.1112 22.5027 15.0336 22.478 14.9607C22.4533 14.8878 22.4122 14.8216 22.3578 14.7672C22.3034 14.7128 22.2372 14.6717 22.1643 14.647C22.0914 14.6223 22.0138 14.6148 21.9375 14.625H19.1216L19.125 12.9375C19.2341 12.2186 19.2341 12.3356 19.9013 12.375H21.9139C22.0703 12.3401 22.2368 12.3592 22.3538 12.2456C22.4708 12.132 22.5383 11.9767 22.4989 11.8125V8.43748C22.5093 8.36127 22.5019 8.28369 22.4774 8.21079C22.4529 8.13789 22.4118 8.07164 22.3575 8.0172C22.3032 7.96276 22.237 7.9216 22.1642 7.89693C22.0913 7.87226 22.0137 7.86475 21.9375 7.87498ZM21.3356 11.187L19.9249 11.133C18.1778 11.133 18.0315 12.0814 18.0315 13.0522L18.027 15.1852C18.0269 15.2642 18.0423 15.3425 18.0724 15.4155C18.1025 15.4885 18.1468 15.5549 18.2026 15.6108C18.2584 15.6667 18.3246 15.711 18.3976 15.7413C18.4706 15.7715 18.5488 15.7871 18.6278 15.7871H21.375V17.9606H18.63C18.4706 17.9606 18.3177 18.0239 18.2048 18.1365C18.092 18.2491 18.0284 18.4019 18.0281 18.5614L18.027 27H15.75V18.5625C15.75 18.2306 15.5239 17.9617 15.1909 17.9617H13.5V15.7882H15.1909C15.2698 15.7884 15.348 15.7729 15.421 15.7428C15.4939 15.7127 15.5603 15.6685 15.6161 15.6127C15.7286 15.4991 15.7489 15.3461 15.7489 15.1864V12.762C15.7489 10.2397 16.2585 9.03823 18.9349 9.03823H21.3345L21.3356 11.187Z" fill="#64AEEB"/>
</g>
<defs>
<clipPath id="clip0_716_1714">
<rect width="36" height="36" fill="white"/>
</clipPath>
</defs>
</svg>
