<svg width="25" height="22" viewBox="0 0 25 22" fill="none" xmlns="http://www.w3.org/2000/svg">
<path d="M13.6695 21.761H2.20035C1.47019 21.761 0.878662 21.2283 0.878662 20.5714V1.39825C0.878662 0.741193 1.47028 0.20874 2.20035 0.20874H23.504C24.2339 0.20874 24.8256 0.741193 24.8256 1.39825V20.5714C24.8256 21.2284 24.2338 21.761 23.504 21.761H17.4017V13.4148H20.5144L20.9805 10.1621H17.4017V8.08547C17.4017 7.14375 17.6923 6.502 19.1927 6.502L21.1065 6.50124V3.59203C20.7755 3.55239 19.6395 3.46383 18.3178 3.46383C15.5585 3.46383 13.6695 4.97965 13.6695 7.76334V10.1621H10.5488V13.4148H13.6695V21.761Z" fill="white"/>
</svg>
