<svg width="34" height="34" viewBox="0 0 34 34" fill="none" xmlns="http://www.w3.org/2000/svg">
<mask id="mask0_1002_627" style="mask-type:alpha" maskUnits="userSpaceOnUse" x="0" y="0" width="34" height="34">
<rect width="34" height="34" fill="#D9D9D9"/>
</mask>
<g mask="url(#mask0_1002_627)">
<path d="M8.49984 28.9123H12.7498V21.3654C12.7498 20.9377 12.8856 20.5793 13.1571 20.29C13.4287 20.0007 13.7651 19.856 14.1665 19.856H19.8332C20.2346 19.856 20.571 20.0007 20.8425 20.29C21.1141 20.5793 21.2498 20.9377 21.2498 21.3654V28.9123H25.4998V15.3279L16.9998 8.53562L8.49984 15.3279V28.9123ZM5.6665 28.9123V15.3279C5.6665 14.8499 5.76685 14.3971 5.96755 13.9694C6.16824 13.5417 6.44567 13.1896 6.79984 12.9128L15.2998 6.1206C15.7957 5.7181 16.3623 5.51685 16.9998 5.51685C17.6373 5.51685 18.204 5.7181 18.6998 6.1206L27.1998 12.9128C27.554 13.1896 27.8314 13.5417 28.0321 13.9694C28.2328 14.3971 28.3332 14.8499 28.3332 15.3279V28.9123C28.3332 29.7425 28.0557 30.4532 27.5009 31.0443C26.946 31.6355 26.279 31.9311 25.4998 31.9311H19.8332C19.4318 31.9311 19.0953 31.7865 18.8238 31.4972C18.5523 31.2079 18.4165 30.8494 18.4165 30.4217V22.8748H15.5832V30.4217C15.5832 30.8494 15.4474 31.2079 15.1759 31.4972C14.9044 31.7865 14.5679 31.9311 14.1665 31.9311H8.49984C7.72067 31.9311 7.05366 31.6355 6.4988 31.0443C5.94393 30.4532 5.6665 29.7425 5.6665 28.9123Z" fill="#64AEEB"/>
</g>
</svg>
