<svg width="34" height="34" viewBox="0 0 34 34" fill="none" xmlns="http://www.w3.org/2000/svg">
<mask id="mask0_716_1014" style="mask-type:alpha" maskUnits="userSpaceOnUse" x="0" y="0" width="34" height="34">
<rect width="34" height="34" fill="#D9D9D9"/>
</mask>
<g mask="url(#mask0_716_1014)">
<path d="M8.49984 26.9168H12.7498V19.8335C12.7498 19.4321 12.8856 19.0956 13.1571 18.8241C13.4287 18.5526 13.7651 18.4168 14.1665 18.4168H19.8332C20.2346 18.4168 20.571 18.5526 20.8425 18.8241C21.1141 19.0956 21.2498 19.4321 21.2498 19.8335V26.9168H25.4998V14.1668L16.9998 7.79183L8.49984 14.1668V26.9168ZM5.6665 26.9168V14.1668C5.6665 13.7182 5.76685 13.2932 5.96755 12.8918C6.16824 12.4904 6.44567 12.1599 6.79984 11.9002L15.2998 5.52516C15.7957 5.14738 16.3623 4.9585 16.9998 4.9585C17.6373 4.9585 18.204 5.14738 18.6998 5.52516L27.1998 11.9002C27.554 12.1599 27.8314 12.4904 28.0321 12.8918C28.2328 13.2932 28.3332 13.7182 28.3332 14.1668V26.9168C28.3332 27.696 28.0557 28.363 27.5009 28.9179C26.946 29.4727 26.279 29.7502 25.4998 29.7502H19.8332C19.4318 29.7502 19.0953 29.6144 18.8238 29.3429C18.5523 29.0713 18.4165 28.7349 18.4165 28.3335V21.2502H15.5832V28.3335C15.5832 28.7349 15.4474 29.0713 15.1759 29.3429C14.9044 29.6144 14.5679 29.7502 14.1665 29.7502H8.49984C7.72067 29.7502 7.05366 29.4727 6.4988 28.9179C5.94393 28.363 5.6665 27.696 5.6665 26.9168Z" fill="#64AEEB"/>
</g>
</svg>
