<svg width="40" height="40" viewBox="0 0 40 40" fill="none" xmlns="http://www.w3.org/2000/svg">
<path d="M25.9132 13.8383C24.3346 12.4333 22.2931 11.6601 20.1798 11.6667C15.4798 11.6667 11.6665 15.3983 11.6665 20C11.6665 24.6017 15.4782 28.3333 20.1815 28.3333C25.9648 28.3333 28.0998 24.05 28.3332 20.695H21.4015" stroke="#64AEEB" stroke-width="1.5"/>
<path d="M35 13.3333V26.6667C35 28.8768 34.122 30.9964 32.5592 32.5592C30.9964 34.122 28.8768 35 26.6667 35H13.3333C11.1232 35 9.00358 34.122 7.44078 32.5592C5.87797 30.9964 5 28.8768 5 26.6667V13.3333C5 11.1232 5.87797 9.00358 7.44078 7.44078C9.00358 5.87797 11.1232 5 13.3333 5H26.6667C28.8768 5 30.9964 5.87797 32.5592 7.44078C34.122 9.00358 35 11.1232 35 13.3333Z" stroke="#64AEEB" stroke-width="1.5" stroke-linecap="round" stroke-linejoin="round"/>
</svg>
