<svg width="15" height="15" viewBox="0 0 15 15" fill="none" xmlns="http://www.w3.org/2000/svg">
<path d="M8.42501 2.79038C8.59191 2.79038 8.73563 2.84602 8.85617 2.95728L13.0009 7.11594C13.1215 7.22721 13.1817 7.36629 13.1817 7.5332C13.1817 7.7001 13.1215 7.84382 13.0009 7.96436L8.85617 12.1091C8.73563 12.2296 8.59191 12.2899 8.42501 12.2899C8.2581 12.2899 8.11902 12.2296 8.00775 12.1091C7.89648 11.9978 7.84085 11.8588 7.84085 11.6918C7.84085 11.5249 7.89648 11.3859 8.00775 11.2746L11.1511 8.13126H1.9019C1.735 8.13126 1.59591 8.07099 1.48464 7.95045C1.3641 7.83918 1.30383 7.7001 1.30383 7.5332C1.30383 7.37557 1.3641 7.23648 1.48464 7.11594C1.59591 7.00467 1.735 6.94904 1.9019 6.94904H11.1511L8.00775 3.80571C7.89648 3.69444 7.84085 3.55535 7.84085 3.38845C7.84085 3.21227 7.89648 3.06855 8.00775 2.95728C8.11902 2.84602 8.2581 2.79038 8.42501 2.79038Z" fill="white"/>
</svg>
