<svg width="34" height="34" viewBox="0 0 34 34" fill="none" xmlns="http://www.w3.org/2000/svg">
<mask id="mask0_1002_630" style="mask-type:alpha" maskUnits="userSpaceOnUse" x="0" y="0" width="34" height="34">
<rect width="34" height="34" fill="#D9D9D9"/>
</mask>
<g mask="url(#mask0_1002_630)">
<path d="M5.66634 31.7307C4.88717 31.7307 4.22016 31.4352 3.6653 30.844C3.11044 30.2528 2.83301 29.5421 2.83301 28.712V10.5993C2.83301 9.76918 3.11044 9.05851 3.6653 8.46733C4.22016 7.87615 4.88717 7.58057 5.66634 7.58057H28.333C29.1122 7.58057 29.7792 7.87615 30.3341 8.46733C30.8889 9.05851 31.1663 9.76918 31.1663 10.5993V28.712C31.1663 29.5421 30.8889 30.2528 30.3341 30.844C29.7792 31.4352 29.1122 31.7307 28.333 31.7307H5.66634ZM28.333 13.6181L17.7434 20.6745C17.6254 20.75 17.5014 20.8066 17.3715 20.8443C17.2417 20.882 17.1177 20.9009 16.9997 20.9009C16.8816 20.9009 16.7577 20.882 16.6278 20.8443C16.4979 20.8066 16.374 20.75 16.2559 20.6745L5.66634 13.6181V28.712H28.333V13.6181ZM16.9997 18.1463L28.333 10.5993H5.66634L16.9997 18.1463ZM5.66634 13.9955V11.7691V11.8068V11.788V13.9955Z" fill="#64AEEB"/>
</g>
</svg>
