<svg width="34" height="34" viewBox="0 0 34 34" fill="none" xmlns="http://www.w3.org/2000/svg">
<mask id="mask0_716_1020" style="mask-type:alpha" maskUnits="userSpaceOnUse" x="0" y="0" width="34" height="34">
<rect width="34" height="34" fill="#D9D9D9"/>
</mask>
<g mask="url(#mask0_716_1020)">
<path d="M5.66683 28.3332C4.88766 28.3332 4.22065 28.0557 3.66579 27.5009C3.11093 26.946 2.8335 26.279 2.8335 25.4998V8.49984C2.8335 7.72067 3.11093 7.05366 3.66579 6.4988C4.22065 5.94393 4.88766 5.6665 5.66683 5.6665H28.3335C29.1127 5.6665 29.7797 5.94393 30.3345 6.4988C30.8894 7.05366 31.1668 7.72067 31.1668 8.49984V25.4998C31.1668 26.279 30.8894 26.946 30.3345 27.5009C29.7797 28.0557 29.1127 28.3332 28.3335 28.3332H5.66683ZM28.3335 11.3332L17.7439 17.9561C17.6259 18.0269 17.5019 18.08 17.372 18.1155C17.2422 18.1509 17.1182 18.1686 17.0002 18.1686C16.8821 18.1686 16.7582 18.1509 16.6283 18.1155C16.4984 18.08 16.3745 18.0269 16.2564 17.9561L5.66683 11.3332V25.4998H28.3335V11.3332ZM17.0002 15.5832L28.3335 8.49984H5.66683L17.0002 15.5832ZM5.66683 11.6873V9.59775V9.63317V9.61546V11.6873Z" fill="#64AEEB"/>
</g>
</svg>
