<svg width="82" height="82" viewBox="0 0 82 82" fill="none" xmlns="http://www.w3.org/2000/svg">
<path d="M54.0754 64.1957C54.7132 64.1957 55.2565 63.9713 55.7052 63.5226C56.1516 63.0762 56.3748 62.5341 56.3748 61.8963C56.3748 61.2562 56.1516 60.713 55.7052 60.2665C55.2587 59.8178 54.7155 59.5935 54.0754 59.5935C53.4354 59.5935 52.8921 59.8178 52.4457 60.2665C51.9992 60.7153 51.776 61.2585 51.776 61.8963C51.776 62.5341 51.9992 63.0762 52.4457 63.5226C52.8921 63.9713 53.4354 64.1957 54.0754 64.1957ZM61.4998 64.1957C62.1376 64.1957 62.6809 63.9713 63.1296 63.5226C63.576 63.0762 63.7993 62.5341 63.7993 61.8963C63.7993 61.2562 63.576 60.713 63.1296 60.2665C62.6831 59.8178 62.1399 59.5935 61.4998 59.5935C60.8598 59.5935 60.3165 59.8178 59.8701 60.2665C59.4236 60.7153 59.2004 61.2585 59.2004 61.8963C59.2004 62.5341 59.4236 63.0762 59.8701 63.5226C60.3165 63.9713 60.8598 64.1957 61.4998 64.1957ZM68.9243 64.1957C69.562 64.1957 70.1053 63.9713 70.554 63.5226C71.0004 63.0762 71.2237 62.5341 71.2237 61.8963C71.2237 61.2562 71.0004 60.713 70.554 60.2665C70.1076 59.8178 69.5643 59.5935 68.9243 59.5935C68.2842 59.5935 67.7409 59.8178 67.2945 60.2665C66.8481 60.7153 66.6248 61.2585 66.6248 61.8963C66.6248 62.5341 66.8481 63.0762 67.2945 63.5226C67.7409 63.9713 68.2842 64.1957 68.9243 64.1957ZM19.1878 68.3333C17.6686 68.3333 16.3691 67.7923 15.2894 66.7104C14.2098 65.6284 13.6688 64.3312 13.6665 62.8188L13.6665 19.1845C13.6665 17.6675 14.2075 16.3692 15.2894 15.2895C16.3714 14.2099 17.6697 13.6689 19.1844 13.6666L62.8153 13.6666C64.3323 13.6666 65.6306 14.2076 66.7103 15.2895C67.7899 16.3715 68.3309 17.6698 68.3332 19.1845L68.3332 36.6642C68.3332 37.1471 68.1692 37.5525 67.8412 37.8805C67.5132 38.2085 67.1066 38.3725 66.6214 38.3725C66.1363 38.3725 65.7308 38.2085 65.4051 37.8805C65.0794 37.5525 64.9165 37.1471 64.9165 36.6642L64.9165 19.188C64.9165 18.6618 64.6978 18.1789 64.2605 17.7393C63.8232 17.2997 63.3403 17.081 62.8118 17.0833L19.1878 17.0833C18.6617 17.0833 18.1788 17.302 17.7392 17.7393C17.2996 18.1766 17.0809 18.6595 17.0832 19.188L17.0832 62.8154C17.0832 63.3393 17.3018 63.821 17.7392 64.2606C18.1765 64.7002 18.6583 64.9189 19.1844 64.9166L36.6641 64.9166C37.147 64.9166 37.5524 65.0806 37.8804 65.4086C38.2084 65.7366 38.3724 66.1432 38.3724 66.6284C38.3724 67.1135 38.2084 67.519 37.8804 67.8447C37.5524 68.1704 37.147 68.3333 36.6641 68.3333L19.1878 68.3333ZM17.0832 61.5239L17.0832 64.9166L17.0832 17.0833L17.0832 38.6288L17.0832 38.3725L17.0832 61.5239ZM25.6248 53.8808C25.6248 54.366 25.7888 54.7714 26.1168 55.0971C26.4448 55.4228 26.8503 55.5857 27.3332 55.5857L37.4465 55.5857C37.9294 55.5857 38.3348 55.4217 38.6628 55.0937C38.9908 54.7657 39.1537 54.3603 39.1514 53.8774C39.1491 53.3945 38.9863 52.989 38.6628 52.661C38.3394 52.333 37.9328 52.169 37.4431 52.169L27.3332 52.169C26.848 52.169 26.4426 52.333 26.1168 52.661C25.7888 52.989 25.6248 53.3956 25.6248 53.8808ZM25.6248 41C25.6248 41.4874 25.7888 41.894 26.1168 42.2197C26.4448 42.5454 26.8503 42.7083 27.3332 42.7083L49.4732 42.7083C49.9583 42.7083 50.3649 42.5443 50.6929 42.2163C51.0209 41.8883 51.1849 41.4817 51.1849 40.9965C51.1849 40.5114 51.0209 40.1059 50.6929 39.7802C50.3649 39.4545 49.9595 39.2916 49.4766 39.2916L27.3332 39.2916C26.848 39.2916 26.4426 39.4556 26.1168 39.7836C25.7911 40.1116 25.6271 40.5182 25.6248 41.0034M25.6248 28.1225C25.6248 28.6077 25.7888 29.0143 26.1168 29.3423C26.4448 29.6703 26.8503 29.832 27.3332 29.8275L54.6665 29.8275C55.1517 29.8275 55.5571 29.6635 55.8828 29.3355C56.2108 29.0075 56.3748 28.6009 56.3748 28.1157C56.3748 27.6305 56.2108 27.2251 55.8828 26.8994C55.5548 26.5737 55.1494 26.4119 54.6665 26.4142L27.3332 26.4142C26.848 26.4142 26.4426 26.5782 26.1168 26.9062C25.7911 27.2342 25.6271 27.6408 25.6248 28.126M61.4998 75.563C57.6937 75.563 54.4649 74.2362 51.8136 71.5825C49.16 68.9312 47.8332 65.7025 47.8332 61.8963C47.8332 58.0901 49.16 54.8602 51.8136 52.2066C54.4672 49.553 57.6959 48.2273 61.4998 48.2296C65.3037 48.2319 68.5336 49.5576 71.1895 52.2066C73.8454 54.8557 75.1711 58.0856 75.1665 61.8963C75.1665 65.7002 73.8408 68.9289 71.1895 71.5825C68.5336 74.2362 65.3037 75.563 61.4998 75.563Z" fill="#F8F8F8"/>
</svg>
