<svg width="1080" height="266" viewBox="0 0 1080 266" fill="none" xmlns="http://www.w3.org/2000/svg">
<g clip-path="url(#clip0_180_220)">
<path opacity="0.1" d="M1200 265.208C1085.69 133.162 709.655 -95.6017 120.003 45.7152" stroke="#00357C" stroke-width="0.75" stroke-dasharray="3 3"/>
<path fill-rule="evenodd" clip-rule="evenodd" d="M973.882 104.918C973.537 105.622 973.545 106.38 973.972 107.157C975.48 109.901 976.98 112.651 978.487 115.399C978.802 115.97 979.11 116.543 979.417 117.119C979.695 117.647 980.085 117.977 980.722 117.915C981.285 117.86 981.63 117.514 981.787 116.824C982.177 115.047 982.567 113.272 982.927 111.488C983.1 110.623 983.49 109.924 984.157 109.338C985.515 108.153 986.835 106.922 988.17 105.713C988.605 105.321 988.89 104.882 988.65 104.264C988.44 103.723 987.997 103.474 987.217 103.49C983.452 103.568 979.687 103.652 975.922 103.743C975.052 103.764 974.37 104.126 973.882 104.918Z" fill="#00B8B7"/>
</g>
<defs>
<clipPath id="clip0_180_220">
<rect width="1080" height="265.5" fill="white" transform="translate(0 0.45752)"/>
</clipPath>
</defs>
</svg>
