<svg width="25" height="18" viewBox="0 0 25 18" fill="none" xmlns="http://www.w3.org/2000/svg">
<path d="M24.684 2.1308C23.8041 2.49144 22.8567 2.73532 21.863 2.84428C22.8778 2.28388 23.6565 1.39527 24.0234 0.33673C23.0732 0.855624 22.0232 1.23312 20.9016 1.43549C20.0076 0.554666 18.7299 0.00463867 17.3159 0.00463867C14.6045 0.00463867 12.4048 2.03481 12.4048 4.53847C12.4048 4.89391 12.447 5.23898 12.5313 5.57107C8.44809 5.38167 4.82871 3.57852 2.40408 0.832274C1.981 1.50424 1.73924 2.28388 1.73924 3.11411C1.73924 4.68635 2.60649 6.07439 3.92492 6.88776C3.12093 6.86571 2.36191 6.65945 1.69848 6.32217V6.37795C1.69848 8.57546 3.39221 10.4085 5.64114 10.8236C5.22931 10.9299 4.79498 10.9831 4.3466 10.9831C4.03034 10.9831 3.72111 10.9559 3.42173 10.9027C4.04721 12.7033 5.86041 14.0148 8.01096 14.0498C6.32988 15.2666 4.21026 15.9917 1.90932 15.9917C1.51294 15.9917 1.12078 15.971 0.737061 15.9295C2.9115 17.2137 5.49496 17.9648 8.26818 17.9648C17.3061 17.9648 22.2467 11.0571 22.2467 5.06515C22.2467 4.86797 22.2425 4.67079 22.2341 4.4775C23.1941 3.83796 24.0276 3.04016 24.684 2.1308Z" fill="white"/>
</svg>
