<svg width="69" height="69" viewBox="0 0 69 69" fill="none" xmlns="http://www.w3.org/2000/svg">
<path d="M25.875 50.025L50.025 34.5L25.875 18.975V50.025ZM34.5 69C29.7275 69 25.2425 68.0944 21.045 66.2831C16.8475 64.4719 13.1962 62.0137 10.0913 58.9087C6.98625 55.8037 4.52812 52.1525 2.71688 47.955C0.905625 43.7575 0 39.2725 0 34.5C0 29.7275 0.905625 25.2425 2.71688 21.045C4.52812 16.8475 6.98625 13.1962 10.0913 10.0913C13.1962 6.98625 16.8475 4.52812 21.045 2.71688C25.2425 0.905625 29.7275 0 34.5 0C39.2725 0 43.7575 0.905625 47.955 2.71688C52.1525 4.52812 55.8037 6.98625 58.9087 10.0913C62.0137 13.1962 64.4719 16.8475 66.2831 21.045C68.0944 25.2425 69 29.7275 69 34.5C69 39.2725 68.0944 43.7575 66.2831 47.955C64.4719 52.1525 62.0137 55.8037 58.9087 58.9087C55.8037 62.0137 52.1525 64.4719 47.955 66.2831C43.7575 68.0944 39.2725 69 34.5 69ZM34.5 62.1C42.205 62.1 48.7313 59.4263 54.0788 54.0788C59.4263 48.7313 62.1 42.205 62.1 34.5C62.1 26.795 59.4263 20.2687 54.0788 14.9213C48.7313 9.57375 42.205 6.9 34.5 6.9C26.795 6.9 20.2687 9.57375 14.9213 14.9213C9.57375 20.2687 6.9 26.795 6.9 34.5C6.9 42.205 9.57375 48.7313 14.9213 54.0788C20.2687 59.4263 26.795 62.1 34.5 62.1Z" fill="black"/>
</svg>
