<svg width="25" height="19" viewBox="0 0 25 19" fill="none" xmlns="http://www.w3.org/2000/svg">
<path d="M24.5306 4.36472C24.4264 6.49003 22.7959 9.39531 19.6504 13.0818C16.3951 16.9367 13.6368 18.8628 11.3825 18.8628C9.98858 18.8628 8.80726 17.691 7.84277 15.3395C7.19649 13.1821 6.55443 11.0246 5.90956 8.87362C5.19147 6.52087 4.42269 5.34513 3.60041 5.34513C3.42159 5.34513 2.79784 5.68822 1.72212 6.37567L0.595703 5.05088C1.77562 4.10644 2.93864 3.15814 4.08618 2.21242C5.65752 0.971153 6.83885 0.319682 7.62734 0.251579C9.48592 0.0871051 10.632 1.24742 11.0643 3.72866C11.5247 6.40779 11.8486 8.07309 12.0274 8.72585C12.5653 10.9462 13.1538 12.0539 13.7987 12.0539C14.2985 12.0539 15.0504 11.3369 16.0529 9.90158C17.0554 8.46372 17.5891 7.37151 17.6623 6.61852C17.8059 5.37726 17.2694 4.76048 16.0529 4.76048C15.4799 4.76048 14.8885 4.87099 14.2816 5.10228C15.4644 1.60849 17.7172 -0.0902187 21.0457 0.00872299C23.5112 0.0716855 24.6756 1.52625 24.5306 4.36472Z" fill="white"/>
</svg>
